HIERARCHY
ROOT pelvis
{
  OFFSET 0 100 0
  CHANNELS 6 Xposition Yposition Zposition Zrotation Xrotation Yrotation
  JOINT pelvis_right_femur
  {
    OFFSET -10.78128 -3.44521 -0.5502486
    CHANNELS 3 Zrotation Xrotation Yrotation
    JOINT right_femur_tibia
    {
      OFFSET -0.8047443 -44.0398 -0.1307829
      CHANNELS 3 Zrotation Xrotation Yrotation
      JOINT right_tibia_foot
      {
        OFFSET 3.006224 -47.83518 -5
        CHANNELS 3 Zrotation Xrotation Yrotation
        End Site
        {
          OFFSET 0 -5 15
        }
      }
    }
  }
  JOINT pelvis_left_femur
  {
    OFFSET 10.78128 -3.44521 -0.5502486
    CHANNELS 3 Zrotation Xrotation Yrotation
    JOINT left_femur_tibia
    {
      OFFSET 0.8047443 -44.0398 -0.1307829
      CHANNELS 3 Zrotation Xrotation Yrotation
      JOINT left_tibia_foot
      {
        OFFSET -4.370144 -48.10324 -4.275266
        CHANNELS 3 Zrotation Xrotation Yrotation
        End Site
        {
          OFFSET 0 -5 15
        }
      }
    }
  }
  JOINT pelvis_spine1
  {
    OFFSET 0 6.468898 -3.129235
    CHANNELS 3 Zrotation Xrotation Yrotation
    JOINT spine1
    {
      OFFSET 0 23.15396 4.99043
      CHANNELS 3 Zrotation Xrotation Yrotation
      JOINT spine2
      {
        OFFSET 0 20.79997 -5.064912
        CHANNELS 3 Zrotation Xrotation Yrotation
        JOINT neck
        {
          OFFSET 0 14.38658 9.616178
          CHANNELS 3 Zrotation Xrotation Yrotation
          End Site
          {
            OFFSET 0 20 0
          }
        }
      }
      JOINT right_manubrium
      {
        OFFSET -5.722621 16.35077 3.967754
        CHANNELS 3 Zrotation Xrotation Yrotation
        JOINT right_clavicle
        {
          OFFSET -13.16364 1.694482 -4.693211
          CHANNELS 3 Zrotation Xrotation Yrotation
          JOINT right_humerus
          {
            OFFSET -28.5034 -0.3100689 -2.792744
            CHANNELS 3 Zrotation Xrotation Yrotation
            JOINT right_radius
            {
              OFFSET -25.15693 0.02248979 -1.271978
              CHANNELS 3 Zrotation Xrotation Yrotation
              End Site
              {
                OFFSET -15 0 0
              }
            }
          }
        }
      }
      JOINT left_manubrium
      {
        OFFSET 5.722621 16.35077 3.967754
        CHANNELS 3 Zrotation Xrotation Yrotation
        JOINT left_clavicle
        {
          OFFSET 13.16364 1.694482 -4.693211
          CHANNELS 3 Zrotation Xrotation Yrotation
          JOINT left_humerus
          {
            OFFSET 29.39168 -1.063119 -2.237045
            CHANNELS 3 Zrotation Xrotation Yrotation
            JOINT left_radius
            {
              OFFSET 24.59957 -0.9528479 0.9047498
              CHANNELS 3 Zrotation Xrotation Yrotation
              End Site
              {
                OFFSET 15 -0 -0
              }
            }
          }
        }
      }
    }
  }
}
MOTION
Frames: 21
Frame Time: 0.0416666666667
0 103.5113 0 -0.2464411 -2.356261 -0.03966315 -0.1218462 -0.4132766 9.081488 -0 19.24179 -0 -7.0138 -15.54317 -0.7409446 -4.248717 7.107665 -20.38493 -0 11.24208 -0 10.28431 -18.14408 26.83085 -1.163249 -7.104032 7.098514 1.471889 10.10443 -6.186622 0.48664 23.70813 5.218037 2.685519 -22.15918 7.757736 10.01058 -17.88065 12.5257 84.00853 37.04192 -21.12686 -0 0 14.32905 -15.97119 7.269239 12.53893 4.491411 -22.02323 -5.422265 -99.98871 36.33586 27.15264 0 0 -18.69236 -8.189051 15.45501 20.40399
0.5646389 103.331 0.7479981 -0.2497148 -2.353249 -0.03449668 0.08508679 -3.114841 9.233897 -0 24.90103 -0 -6.756789 -15.52425 -1.193602 -4.518066 7.660777 -20.07256 -0 11.11317 -0 10.13689 -18.94081 26.53041 -1.227373 -6.762492 6.877646 1.396562 10.25169 -6.322457 0.6491325 23.56979 5.212963 2.492749 -22.18927 8.055756 9.929527 -17.91423 12.36459 83.55759 36.71523 -20.73613 -0 0 14.51307 -16.14136 7.286937 12.62823 4.214725 -21.69546 -5.294006 -99.58695 35.56155 26.98615 0 0 -18.51454 -8.00136 14.775 20.02612
1.1512 103.2115 1.664198 -0.260625 -2.382333 -0.1450253 0.3893468 -6.479868 9.129135 -0 31.20049 -0 -6.58069 -14.99972 -1.784692 -4.812728 8.435973 -19.77029 -0 10.82923 -0 9.8963 -19.67943 26.28274 -1.412969 -6.279575 6.512761 1.39767 10.40808 -6.548676 0.752525 23.43412 5.329693 2.343494 -22.24462 8.41249 9.84178 -18.00567 12.15989 83.08646 36.3632 -20.29106 -0 0 14.74009 -16.31332 7.304792 12.7191 4.113076 -21.40589 -5.227457 -98.98699 34.91846 26.76634 0 0 -18.36929 -7.576563 14.40298 19.7641
1.565929 103.0582 2.719467 -0.2720231 -2.403653 -0.2303435 0.6524524 -9.384385 8.71907 -0 37.4475 -0 -6.539397 -14.47528 -2.473955 -4.999941 9.353482 -19.50418 -0 10.41806 -0 9.558271 -20.36627 26.08315 -1.564631 -5.593417 6.084563 1.446816 10.41911 -6.806625 0.6710048 23.27202 5.609341 2.164917 -22.33897 8.768129 9.763688 -18.11859 11.8673 82.67785 35.98176 -19.84804 -0 0 14.99948 -16.47819 7.329203 12.8023 4.1998 -21.36274 -5.009527 -97.91367 34.47459 26.1467 0 0 -18.35517 -6.878248 14.35161 19.5889
1.987757 103.0704 4.010625 -0.2900317 -2.44929 -0.4048558 1.288955 -13.17968 8.065421 -0 41.90674 -0 -6.633256 -14.07552 -3.098348 -5.205816 10.47444 -19.19211 -0 9.937534 -0 9.071894 -20.94657 25.92277 -1.918235 -4.644155 5.611757 1.613106 10.41899 -7.151591 0.6838834 23.00704 5.886828 2.092423 -22.52746 9.1537 9.625714 -18.35082 11.60222 82.20618 35.61576 -19.36136 -0 0 15.25976 -16.64636 7.35899 12.89588 4.367357 -21.07148 -4.880825 -97.07365 33.95372 25.72135 0 0 -18.461 -6.217347 14.24147 19.38398
2.298822 103.0895 5.460854 -0.3170629 -2.530495 -0.7125505 1.833189 -17.12298 7.015099 -0 43.60071 -0 -6.730975 -13.64342 -3.750371 -5.394459 11.72673 -18.80155 -0 9.471139 -0 8.488467 -21.50351 25.76796 -2.267377 -3.450934 5.346185 1.800963 10.32478 -7.364004 0.7506102 22.66743 6.150936 2.083876 -22.73401 9.530939 9.441418 -18.326 11.34627 82.13348 35.27659 -19.22603 -0 0 15.28607 -16.70545 7.448786 12.93548 4.557071 -21.03809 -4.646339 -96.12222 33.34464 24.95363 0 0 -18.89598 -5.47745 14.09835 19.03908
2.549954 103.02 7.209526 -0.3553836 -2.655714 -1.186629 2.488996 -20.71408 5.588302 -0 43.08023 -0 -6.802996 -12.46825 -4.273532 -5.722826 13.09771 -18.31431 -0 9.086921 -0 7.882564 -22.12305 25.54766 -2.708548 -2.03612 5.205283 2.081997 10.17793 -7.517627 0.8856801 22.19772 6.38135 2.142236 -22.99743 9.885839 9.228388 -18.22421 11.12791 82.28382 34.99249 -19.30827 -0 0 15.04904 -16.64765 7.591988 12.89157 4.843503 -21.09349 -4.391201 -95.125 32.65976 24.01081 0 0 -19.61738 -4.68269 13.92703 18.55951
2.818647 102.7752 9.237223 -0.3817887 -2.724417 -1.458031 3.05697 -23.96389 4.535394 -0 39.55964 -0 -6.769949 -11.0091 -4.153593 -5.816927 14.65136 -17.83051 -0 8.784783 -0 7.201883 -22.83442 24.97074 -3.070292 -0.495279 5.040954 2.437612 9.929763 -7.68873 0.9581585 21.6674 6.642072 2.194788 -23.28289 10.19564 8.909321 -18.01602 10.92477 82.56461 34.76954 -19.58671 -0 0 14.50807 -16.49317 7.78414 12.75103 5.295639 -21.43086 -4.109775 -93.95187 31.9305 22.65133 0 0 -20.90425 -3.751614 13.83153 17.94782
2.968059 102.2529 11.63742 -0.3793209 -2.669083 -1.272482 3.555451 -26.82728 4.18111 -0 34.46853 -0 -6.770133 -9.416983 -3.44281 -5.90065 16.11999 -17.38869 -0 8.778323 -0 6.527592 -23.63578 24.17096 -3.330464 0.8720474 4.839088 2.726491 9.643997 -7.875307 0.9919034 21.17138 6.914636 2.250252 -23.48506 10.46346 8.504854 -17.79018 10.64557 82.97867 34.59158 -19.92913 -0 0 13.87527 -16.32747 8.02796 12.61529 5.668995 -21.8184 -3.799848 -92.74785 31.12243 21.23221 0 0 -22.33012 -2.80632 13.7059 17.24002
3.229151 101.4605 14.50421 -0.3591869 -2.543185 -0.8256705 3.913192 -29.0249 3.886236 -0 28.0145 -0 -6.637582 -8.183263 -2.753901 -6.00082 17.63553 -16.89831 -0 9.124318 -0 5.788629 -24.43678 23.08992 -3.472864 1.985448 4.443091 3.154305 9.446066 -8.224471 1.038582 20.83049 7.178195 2.345655 -23.58758 10.71029 7.948919 -17.4752 10.3526 83.46582 34.45622 -20.42245 -0 0 13.05307 -16.08946 8.316277 12.42182 6.021402 -21.9567 -3.790291 -91.60434 30.2975 19.63943 0 0 -23.91331 -1.92694 13.53944 16.45572
3.47744 100.6422 17.64329 -0.3033688 -2.252072 0.2325405 3.866242 -30.80264 3.769422 -0 22.69187 -0 -6.720882 -7.026934 -2.210536 -5.907279 19.01846 -16.25582 -0 9.897007 -0 4.839682 -25.01814 21.6771 -3.54253 2.965063 3.887141 3.566599 9.11205 -8.778493 0.9885041 20.43597 7.426933 2.438219 -23.78458 10.79569 7.439276 -17.09259 10.15265 84.04025 34.36535 -21.01921 -0 0 12.06296 -15.7777 8.660011 12.16223 6.283033 -22.09491 -4.012859 -90.57429 29.50171 18.17769 0 0 -25.35112 -1.199107 13.31644 15.70728
3.616201 99.84207 21.50944 -0.2412524 -1.909145 1.4825 3.885995 -31.77256 3.940784 -0 19.96141 -0 -7.148004 -6.157346 -1.950433 -5.671795 20.136 -15.71462 -0 11.82093 -0 3.552055 -25.0133 20.02351 -3.436655 3.674392 3.396005 3.890516 8.925824 -9.330529 0.9360884 20.25305 7.64269 2.606401 -24.03688 10.78428 7.022196 -16.55791 9.883365 84.87103 34.27935 -21.8049 -0 0 10.92228 -15.37632 9.061549 11.85067 6.272151 -22.29146 -4.092262 -89.71472 28.70001 17.01748 0 0 -26.30277 -0.6044984 13.05068 15.09726
3.676533 99.32698 26.06977 -0.1847887 -1.566789 2.729446 4.088921 -31.13004 4.352351 -0 20.39108 -0 -7.90959 -5.636859 -2.082596 -5.45732 20.52735 -15.12914 -0 15.301 -0 1.830739 -23.85777 18.21995 -3.241959 3.911272 2.879879 4.07888 8.799557 -9.885057 0.8760839 19.98426 7.729246 2.754418 -24.40451 10.58443 6.76003 -15.96446 9.733205 85.81673 34.2252 -22.57012 -0 0 9.722656 -14.92317 9.519273 11.51331 5.971609 -22.15095 -4.24083 -89.12526 27.89899 16.44961 0 0 -26.6274 -0.1277732 12.75566 14.62733
3.746539 99.25443 31.35191 -0.1344523 -1.229743 3.95446 4.352802 -29.49611 4.801388 -0 22.26984 -0 -8.752917 -5.540101 -2.59466 -5.076325 20.63811 -14.39559 -0 20.38854 -0 -0.3044807 -21.09228 16.19882 -2.803314 3.697317 2.449065 4.132928 8.729215 -10.28397 0.6719915 19.84335 7.762113 2.809865 -24.72486 10.19401 6.505077 -15.17721 9.624916 86.91753 34.16628 -23.3763 -0 0 8.50478 -14.42013 10.02262 11.16191 5.542204 -21.90821 -4.280217 -88.84549 27.11385 16.20515 0 0 -26.79066 0.2895376 12.50511 14.19844
3.83769 99.55635 37.14788 -0.1131319 -1.068372 4.541034 4.695256 -27.19869 5.454067 -0 23.94789 -0 -9.539079 -6.137732 -3.12825 -5.044597 19.43881 -13.4621 -0 27.97385 -0 -2.417928 -16.60388 14.40298 -2.141606 2.888686 2.362579 4.000949 8.787506 -10.27173 0.288679 19.87002 7.856235 2.776981 -24.93574 9.732517 6.27757 -14.35481 9.841169 88.04197 34.14672 -24.02521 -0 0 7.365201 -13.90279 10.56916 10.82457 4.940325 -21.223 -4.290249 -88.93993 26.35191 16.63806 0 0 -26.45465 0.5520024 12.21634 13.88016
3.883552 100.2188 43.24781 -0.115743 -1.078374 4.507571 5.176214 -23.84677 6.000604 -0 24.60366 -0 -10.22084 -7.564811 -3.545535 -5.282584 16.27217 -12.2112 -0 37.85488 -0 -3.764941 -11.57255 13.32792 -1.612448 1.935749 2.764229 3.819512 8.976139 -9.911215 -0.1287628 20.11954 7.892574 2.721206 -25.06596 9.170295 6.231419 -13.88336 10.25524 88.77121 34.2508 -24.13205 -0 0 6.423433 -13.45039 11.13711 10.53009 4.254086 -20.36939 -4.222873 -89.18163 25.64408 17.48911 0 0 -25.77486 0.646268 11.88445 13.60975
4.016429 101.04 48.93714 -0.135365 -1.208883 4.038861 5.381219 -19.62134 6.045182 -0 23.83335 -0 -10.57389 -9.223863 -3.605053 -5.282977 10.83455 -10.76311 -0 48.08799 -0 -4.578074 -7.032384 12.92761 -1.155501 1.254261 3.499447 3.685898 9.129273 -9.402829 -0.5356108 20.46327 7.88247 2.655709 -25.10129 8.560223 6.270499 -13.88174 10.78248 88.68427 34.46612 -23.51037 -0 0 5.979869 -13.29046 11.64891 10.41069 3.522562 -19.77245 -4.165124 -89.23517 25.01111 18.26597 0 0 -24.99677 0.6961436 11.58676 13.33153
4.210402 102.1426 54.4156 -0.164152 -1.395959 3.36618 5.28274 -14.73847 5.598746 -0 21.53278 -0 -10.5163 -10.69191 -3.208232 -4.259687 2.935356 -9.105359 -0 56.76342 -0 -4.529978 -5.290704 13.73539 -0.8355313 0.834889 4.690967 3.498852 9.23842 -8.56837 -0.6809909 20.8151 7.679435 2.723521 -25.13948 7.906235 6.306037 -14.18295 11.48062 87.80554 34.73518 -22.15823 -0 0 6.030718 -13.53812 12.05415 10.48551 2.720957 -19.51939 -4.080328 -89.16381 24.40464 18.87387 0 0 -24.29052 0.7665708 11.34308 12.97798
4.358052 103.3633 59.58642 -0.1830196 -1.517181 2.931668 4.977577 -9.55312 4.867695 -0 18.21143 -0 -10.02923 -11.74927 -2.458365 -2.698416 -5.73553 -7.341011 -0 61.48352 -0 -3.841349 -5.338029 14.97343 -0.6633626 0.5333739 5.873633 3.343343 9.336991 -7.612565 -0.6530156 21.23679 7.289518 2.873782 -24.98962 7.13055 6.17974 -14.51467 12.0381 86.60417 34.91713 -20.38304 -0 0 6.499227 -14.12996 12.34625 10.72995 2.345559 -19.44165 -3.734147 -88.96073 23.85693 19.37192 0 0 -23.66531 0.8242936 11.09349 12.75002
4.498001 104.4379 64.35617 -0.1878582 -1.553495 2.803025 4.621779 -4.487836 3.993427 -0 14.47367 -0 -9.262774 -12.57138 -1.534897 -1.005991 -13.8161 -5.541885 -0 61.20622 -0 -3.126129 -5.734879 15.81831 -0.6323448 0.6428469 6.868533 3.015337 9.339897 -6.697344 -0.5101373 21.51021 6.876621 3.062753 -24.67864 6.428024 5.782912 -15.42119 12.68701 84.62563 35.02309 -17.63633 -0 0 7.757681 -15.18091 12.46429 11.27275 2.275466 -19.33423 -3.562603 -88.79965 23.34764 19.90045 0 0 -23.10022 0.8669956 10.82396 12.59133
4.788211 104.914 69.29571 -0.2066672 -1.665772 2.395522 4.26877 0.472315 3.175447 -0 11.11667 -0 -8.396113 -13.48081 -0.5977865 0.4420542 -19.7286 -3.995543 -0 56.64894 -0 -2.861114 -5.257818 16.40059 -0.6324368 0.6044463 7.532865 2.544844 9.366369 -5.920176 -0.422419 21.66615 6.574982 3.196025 -24.19194 5.851483 5.05081 -16.52627 13.02626 82.41703 34.94311 -14.55323 -0 0 9.497234 -16.48106 12.46203 11.99491 2.442544 -18.82627 -3.302671 -88.89135 22.8267 20.70939 0 0 -22.50862 0.8876801 10.53308 12.4887
